<?xml version="1.0"?><svg width="640" height="480" xmlns="http://www.w3.org/2000/svg">
 <g>
  <title>Layer 1</title>
  <g id="layer1">
   <path fill="#ffffff" stroke="#000000" stroke-width="14.790461" stroke-linejoin="round" stroke-miterlimit="4" stroke-dashoffset="0" id="path4952" d="m357.526215,43.723328c-28.877594,-7.977932 -58.101532,1.152035 -78.276306,20.986282c-10.540466,-13.062809 -24.812866,-23.144638 -41.932007,-27.873756c-44.057907,-12.171431 -89.445389,14.846142 -101.250717,60.271545c-0.867493,3.33786 -1.095886,6.694443 -1.561127,10.032883c-39.676285,-4.25238 -77.640244,21.356911 -88.291294,62.341316c-10.553726,40.609421 9.361694,82.133835 45.15646,99.207092c-1.945717,4.35022 -3.759911,8.831879 -5.002808,13.6138c-11.805168,45.425415 14.425362,92.121033 58.48336,104.29248c21.579712,5.962555 43.387817,2.461365 61.491104,-7.931732c9.977249,22.006927 28.579269,39.719147 53.101425,46.493317c34.987793,9.666107 70.491577,-5.645813 89.659302,-34.993866c7.764343,5.667267 16.394745,10.355133 26.116455,13.041382c44.057892,12.171417 89.347748,-14.873627 101.153137,-60.299011c5.936371,-22.842224 2.263123,-45.958252 -8.452972,-64.903351c10.605438,-10.426605 18.906921,-23.634048 22.974335,-39.285217c11.805328,-45.425949 -14.425262,-92.121582 -58.483185,-104.293045c-4.637878,-1.280701 -9.28363,-2.002182 -13.909332,-2.439911c2.741608,-39.890656 -22.124481,-77.52676 -60.97583,-88.260208z"/>
  </g>
 </g>
</svg>